<?xml version="1.0" standalone="no"?>
<!DOCTYPE svg PUBLIC "-//W3C//DTD SVG 20010904//EN"
 "http://www.w3.org/TR/2001/REC-SVG-20010904/DTD/svg10.dtd">
<svg version="1.0" xmlns="http://www.w3.org/2000/svg"
 width="800.000000pt" height="800.000000pt" viewBox="0 0 800.000000 800.000000"
 preserveAspectRatio="xMidYMid meet">

<g transform="translate(0.000000,800.000000) scale(0.100000,-0.100000)"
fill="#000000" stroke="none">
<path d="M3810 6320 c-389 -35 -767 -166 -1085 -377 -829 -549 -1219 -1542
-984 -2503 38 -156 89 -293 168 -455 193 -394 460 -697 824 -936 971 -637
2272 -451 3032 433 795 925 742 2302 -121 3162 -372 371 -831 596 -1356 665
-112 15 -368 21 -478 11z m265 -195 c187 -30 420 -298 557 -638 31 -78 88
-247 88 -261 0 -13 -93 -29 -325 -58 -133 -16 -638 -16 -780 0 -227 26 -335
45 -335 59 0 27 94 271 145 378 121 250 267 421 420 491 57 26 134 44 170 38
11 -1 38 -6 60 -9z m-607 -93 c-117 -130 -251 -385 -340 -647 -22 -66 -42
-122 -44 -124 -8 -9 -283 76 -410 127 -29 12 -86 38 -129 58 l-76 37 33 34
c193 202 528 408 828 508 171 57 183 57 138 7z m1212 -9 c132 -43 379 -163
490 -238 111 -75 242 -180 309 -249 l55 -55 -88 -40 c-148 -69 -473 -181 -521
-181 -7 0 -20 28 -30 63 -64 227 -225 548 -348 695 -21 24 -37 46 -37 49 0 8
59 -7 170 -44z m-2240 -738 c158 -79 350 -149 556 -204 l41 -11 -13 -58 c-11
-48 -28 -147 -60 -339 l-5 -33 -183 0 c-157 0 -191 -3 -241 -20 -192 -66 -305
-231 -305 -447 l0 -73 -180 0 -180 0 0 33 c0 18 5 71 10 117 38 307 148 619
306 871 72 114 142 209 153 209 5 0 50 -20 101 -45z m3273 -12 c157 -205 294
-493 358 -753 31 -128 59 -303 59 -374 l0 -46 -180 0 -180 0 0 78 c0 189 -87
339 -242 416 -84 43 -111 47 -318 49 l-164 2 -7 35 c-18 87 -63 347 -63 368
-1 22 9 27 114 57 63 18 156 48 205 65 105 37 333 138 341 151 12 20 35 6 77
-48z m-2342 -268 c266 -42 668 -56 950 -35 122 10 383 43 435 56 25 6 23 14
63 -218 16 -87 26 -160 23 -163 -3 -3 -383 -5 -844 -5 l-838 0 0 23 c0 27 11
95 42 255 22 111 22 113 48 107 14 -2 68 -12 121 -20z m2069 -546 c55 -25 114
-80 143 -134 21 -38 22 -52 22 -325 l0 -285 -29 -53 c-32 -57 -81 -102 -143
-130 -35 -16 -130 -17 -1433 -17 l-1395 0 -48 24 c-67 33 -133 110 -153 177
-23 80 -16 541 9 597 26 57 86 117 142 143 l50 24 1395 0 c1381 0 1395 -1
1440 -21z m-3210 -631 c1 -217 110 -382 298 -450 48 -18 87 -22 244 -26 l187
-4 5 -27 c3 -14 15 -82 26 -151 11 -69 27 -151 34 -183 10 -43 11 -59 2 -62
-310 -90 -397 -122 -572 -204 l-120 -58 -65 91 c-227 316 -364 686 -395 1064
l-7 82 182 0 181 0 0 -72z m3897 -25 c-31 -365 -171 -738 -397 -1055 l-62 -87
-97 48 c-155 78 -356 152 -533 198 -37 10 -68 23 -68 29 0 7 9 54 19 105 11
52 27 142 37 202 l17 107 152 0 c83 0 178 5 211 11 88 16 175 63 237 128 90
94 127 190 127 328 l0 83 183 0 183 0 -9 -97z m-1293 -540 c-8 -49 -24 -135
-36 -191 l-21 -104 -28 6 c-82 16 -344 47 -477 56 -331 22 -653 4 -1013 -56
l-35 -6 -27 138 c-15 77 -30 163 -33 192 l-7 52 845 0 845 0 -13 -87z m-424
-438 c176 -19 284 -35 301 -46 12 -7 8 -25 -19 -106 -157 -463 -392 -759 -639
-805 -241 -45 -504 207 -687 660 -66 163 -91 243 -77 252 26 15 336 53 531 64
116 7 452 -4 590 -19z m-1282 -212 c91 -268 204 -482 348 -660 l26 -32 -73 20
c-326 90 -690 300 -907 521 l-53 55 88 40 c144 66 459 177 518 182 6 1 29 -56
53 -126z m1933 87 c74 -22 170 -53 213 -70 102 -39 256 -111 256 -119 0 -11
-158 -150 -242 -214 -218 -164 -462 -285 -721 -357 l-68 -19 39 47 c134 162
294 478 358 710 9 34 20 62 24 62 4 0 67 -18 141 -40z"/>
<path d="M2910 4247 c0 -4 62 -206 126 -409 l27 -88 46 0 46 0 54 168 54 167
49 -155 c27 -85 51 -161 54 -168 2 -9 19 -12 51 -10 l46 3 74 235 c40 129 71
241 68 248 -6 17 -80 15 -95 -3 -7 -9 -32 -81 -55 -162 l-42 -147 -52 156
c-46 139 -55 157 -77 162 -53 14 -60 3 -115 -162 -29 -86 -54 -152 -56 -147
-1 6 -21 73 -42 150 -25 85 -47 144 -57 152 -15 11 -104 19 -104 10z"/>
<path d="M3650 4244 c0 -5 94 -311 141 -461 10 -31 13 -33 57 -33 l47 0 44
138 c68 213 56 211 116 27 l53 -160 45 -3 45 -3 30 93 c46 140 122 388 122
399 0 14 -74 11 -94 -4 -11 -8 -34 -69 -61 -161 -23 -82 -45 -144 -47 -140 -3
5 -26 75 -52 155 -39 125 -49 148 -69 153 -55 14 -63 3 -118 -163 -29 -86 -54
-151 -56 -146 -1 6 -21 73 -43 150 -23 82 -47 145 -57 153 -17 12 -103 17
-103 6z"/>
<path d="M4396 4241 c-5 -7 35 -143 135 -459 10 -32 13 -33 57 -30 l45 3 51
158 c28 86 53 157 56 157 4 0 29 -71 56 -157 l50 -158 46 -3 47 -3 40 128 c84
272 111 360 111 366 0 13 -89 7 -103 -7 -7 -8 -31 -77 -52 -155 -21 -78 -41
-141 -45 -141 -3 0 -28 67 -54 149 -49 152 -54 160 -103 161 -25 0 -41 -33
-88 -174 -26 -81 -49 -145 -51 -143 -2 2 -22 68 -45 148 -22 79 -48 150 -57
157 -18 14 -88 16 -96 3z"/>
</g>
</svg>
